<svg xmlns="http://www.w3.org/2000/svg" width="400" height="208" viewBox="0 0 400 208" role="img" aria-labelledby="t d"><title id="t">Speech &amp; Voice AI</title><desc id="d">Arabic speech processing, transcription, captions and multi-provider AI failover. FastAPI, Flutter, Swift, Speech AI</desc><defs><path id="g0" d="M300 10L300 10Q231 10 181-17Q130-44 102-93Q74-141 74-206L74-206L74-524Q74-590 102-638Q129-686 180-713Q231-740 300-740L300-740Q370-740 421-713Q471-686 499-638Q526-590 526-524L526-524L526-206Q526-141 498-93Q470-44 420-17Q369 10 300 10ZM300-83L300-83Q356-83 390-117Q423-151 423-206L423-206L423-524Q423-579 390-613Q356-647 300-647L300-647Q244-647 211-613Q177-579 177-524L177-524L177-206Q177-151 211-117Q244-83 300-83ZM300-303L300-303Q272-303 255-321Q237-339 237-368L237-368Q237-396 255-414Q272-431 300-431L300-431Q328-431 346-414Q363-396 363-368L363-368Q363-339 346-321Q328-303 300-303Z"/><path id="g1" d="M301 10L301 10Q229 10 175-20Q121-50 91-105Q61-159 61-230L61-230Q61-284 78-339Q94-393 125-443L125-443L303-730L423-730L211-394L216-391Q236-420 270-436Q303-451 344-451L344-451Q403-451 447-423Q491-395 515-345Q539-294 539-225L539-225Q539-155 509-102Q479-49 426-20Q373 10 301 10ZM300-83L300-83Q360-83 396-122Q432-161 432-225L432-225Q432-289 396-328Q360-367 300-367L300-367Q240-367 204-328Q168-289 168-225L168-225Q168-161 204-122Q240-83 300-83Z"/><path id="g2" d="M310 14L310 14Q230 14 169-15Q107-43 72-97Q37-151 37-229L37-229L37-255L156-255L156-229Q156-160 198-126Q240-92 310-92L310-92Q381-92 417-121Q453-150 453-196L453-196Q453-227 436-247Q419-266 387-278Q354-290 308-301L308-301L278-307Q209-323 159-348Q108-372 81-411Q54-450 54-513L54-513Q54-576 84-621Q114-666 169-690Q224-714 298-714L298-714Q372-714 430-689Q488-664 522-614Q555-564 555-489L555-489L555-456L436-456L436-489Q436-532 419-558Q402-584 371-596Q340-608 298-608L298-608Q236-608 204-584Q172-560 172-516L172-516Q172-488 187-469Q201-449 230-437Q258-424 301-415L301-415L331-408Q403-392 457-368Q511-343 542-303Q572-263 572-199L572-199Q572-136 540-88Q507-40 449-13Q390 14 310 14Z"/><path id="g3" d="M188 200L73 200L73-494L186-494L186-429L203-429Q220-460 258-484Q295-508 365-508L365-508Q425-508 477-479Q528-449 559-392Q590-335 590-255L590-255L590-239Q590-159 559-102Q528-45 477-16Q426 14 365 14L365 14Q318 14 287 3Q255-8 236-26Q216-44 205-62L205-62L188-62L188 200ZM331-86L331-86Q394-86 435-127Q475-167 475-242L475-242L475-252Q475-328 434-368Q393-408 331-408L331-408Q269-408 228-368Q186-328 186-252L186-252L186-242Q186-167 228-127Q269-86 331-86Z"/><path id="g4" d="M299 14L299 14Q225 14 169-18Q112-49 81-107Q49-164 49-241L49-241L49-253Q49-331 80-388Q111-445 167-477Q223-508 296-508L296-508Q368-508 422-477Q476-445 506-388Q536-331 536-255L536-255L536-214L165-214Q167-156 206-121Q245-86 302-86L302-86Q358-86 385-111Q412-135 426-166L426-166L521-117Q507-90 481-60Q454-29 410-8Q366 14 299 14ZM166-301L166-301L419-301Q415-350 382-379Q348-408 295-408L295-408Q240-408 207-379Q174-350 166-301Z"/><path id="g5" d="M304 14L304 14Q232 14 174-16Q116-46 83-103Q49-160 49-240L49-240L49-254Q49-334 83-391Q116-448 174-478Q232-508 304-508L304-508Q375-508 426-483Q476-458 507-415Q538-371 547-317L547-317L436-294Q432-325 417-351Q402-376 375-391Q347-406 307-406L307-406Q266-406 234-389Q201-371 183-336Q164-301 164-252L164-252L164-242Q164-193 183-159Q201-124 234-106Q266-88 307-88L307-88Q368-88 400-120Q431-151 439-201L439-201L550-175Q538-123 507-80Q476-37 426-12Q375 14 304 14Z"/><path id="g6" d="M188 0L73 0L73-700L188-700L188-429L205-429Q213-446 231-463Q249-480 279-491Q308-502 353-502L353-502Q410-502 454-477Q498-451 523-405Q547-359 547-296L547-296L547 0L432 0L432-287Q432-347 403-377Q373-406 319-406L319-406Q258-406 223-366Q188-325 188-250L188-250L188 0Z"/><path id="g8" d="M484 0L239 0Q178 0 132-23Q85-45 59-87Q32-129 32-188L32-188Q32-231 48-264Q64-296 91-317Q118-338 150-348L150-348L150-361Q101-376 69-413Q37-450 37-513L37-513Q37-573 64-615Q91-657 138-679Q184-700 243-700L243-700L356-700L356-605L263-605Q215-605 183-580Q151-554 151-503L151-503Q151-468 167-446Q182-423 208-412Q233-401 263-401L263-401L370-401L370-496L484-496L484-401L578-401L578-306L484-306L484 0ZM259-95L259-95L370-95L370-306L259-306Q211-306 179-280Q147-253 147-201L147-201Q147-147 181-121Q214-95 259-95Z"/><path id="g9" d="M412 0L206 0L20-700L144-700L302-77L316-77L475-700L599-700L412 0Z"/><path id="ga" d="M307 14L307 14Q233 14 175-17Q116-47 83-104Q49-160 49-239L49-239L49-255Q49-334 83-391Q116-448 175-478Q233-508 307-508L307-508Q381-508 439-478Q497-448 531-391Q564-334 564-255L564-255L564-239Q564-160 531-104Q497-47 439-17Q381 14 307 14ZM307-88L307-88Q370-88 410-129Q450-169 450-242L450-242L450-252Q450-325 410-366Q370-406 307-406L307-406Q244-406 204-366Q164-325 164-252L164-252L164-242Q164-169 204-129Q244-88 307-88Z"/><path id="gb" d="M188 0L73 0L73-494L188-494L188 0ZM130-557L130-557Q99-557 77-578Q54-598 54-632L54-632Q54-666 77-687Q99-707 130-707L130-707Q163-707 185-687Q206-666 206-632L206-632Q206-598 185-578Q163-557 130-557Z"/><path id="gc" d="M144 0L20 0L212-700L421-700L613 0L489 0L447-160L186-160L144 0ZM308-625L214-270L419-270L325-625L308-625Z"/><path id="gd" d="M190 0L69 0L69-700L190-700L190 0Z"/><path id="ge" d="M112 0L25 0L241-700L389-700L605 0L518 0L464-177L166-177L112 0ZM308-649L187-253L442-253L322-649L308-649Z"/><path id="gf" d="M162 0L83 0L83-489L160-489L160-429L174-429Q187-461 214-476Q241-491 285-491L285-491L343-491L343-419L280-419Q227-419 195-390Q162-360 162-298L162-298L162 0Z"/><path id="gg" d="M233 14L233 14Q182 14 140-4Q98-22 74-56Q50-90 50-139L50-139Q50-189 74-222Q98-254 140-271Q182-287 234-287L234-287L399-287L399-323Q399-375 369-405Q338-435 278-435L278-435Q219-435 186-407Q153-378 141-330L141-330L67-354Q79-395 105-429Q131-462 175-483Q218-503 279-503L279-503Q373-503 425-455Q477-406 477-318L477-318L477-97Q477-67 505-67L505-67L550-67L550 0L481 0Q448 0 428-19Q408-37 408-68L408-68L408-73L396-73Q385-54 367-34Q348-13 316 1Q284 14 233 14ZM242-54L242-54Q312-54 356-96Q399-137 399-212L399-212L399-223L237-223Q190-223 160-203Q129-182 129-141L129-141Q129-100 161-77Q192-54 242-54Z"/><path id="gh" d="M354 14L354 14Q278 14 236-15Q193-44 174-81L174-81L160-81L160 0L83 0L83-700L162-700L162-412L176-412Q188-435 210-456Q232-476 268-490Q303-503 354-503L354-503Q418-503 471-473Q523-442 554-386Q585-329 585-251L585-251L585-238Q585-160 554-103Q522-46 470-16Q417 14 354 14ZM333-56L333-56Q409-56 457-105Q504-153 504-240L504-240L504-249Q504-336 457-385Q409-433 333-433L333-433Q258-433 210-385Q161-336 161-249L161-249L161-240Q161-153 210-105Q258-56 333-56Z"/><path id="gi" d="M162 0L83 0L83-489L162-489L162 0ZM123-565L123-565Q97-565 80-582Q62-599 62-625L62-625Q62-652 80-669Q97-686 123-686L123-686Q149-686 166-669Q183-652 183-625L183-625Q183-599 166-582Q149-565 123-565Z"/><path id="gj" d="M308 14L308 14Q237 14 181-17Q124-47 92-104Q59-161 59-239L59-239L59-250Q59-329 92-386Q124-442 181-473Q237-503 308-503L308-503Q378-503 428-477Q477-451 506-408Q534-365 542-316L542-316L465-300Q460-336 442-366Q423-396 390-414Q357-432 309-432L309-432Q260-432 222-410Q183-388 161-347Q138-306 138-249L138-249L138-240Q138-183 161-142Q183-101 222-79Q260-57 309-57L309-57Q382-57 421-95Q459-133 468-189L468-189L546-172Q535-124 506-81Q477-38 428-12Q378 14 308 14Z"/><path id="gl" d="M280 14L280 14Q189 14 127-28Q64-70 51-161L51-161L126-178Q134-130 156-103Q178-75 211-64Q243-52 280-52L280-52Q335-52 367-74Q399-96 399-133L399-133Q399-171 369-187Q338-202 285-212L285-212L244-219Q197-227 158-244Q119-261 96-290Q73-319 73-363L73-363Q73-429 124-466Q175-503 259-503L259-503Q342-503 394-466Q445-428 460-360L460-360L386-341Q377-394 343-416Q309-437 259-437L259-437Q209-437 180-419Q151-400 151-364L151-364Q151-329 179-313Q206-296 252-288L252-288L293-281Q345-272 387-257Q428-241 453-212Q477-183 477-136L477-136Q477-64 424-25Q370 14 280 14Z"/><path id="gm" d="M162 200L83 200L83-489L160-489L160-408L174-408Q193-445 236-474Q278-503 354-503L354-503Q417-503 470-473Q522-442 554-386Q585-330 585-251L585-251L585-238Q585-160 554-103Q523-46 471-16Q418 14 354 14L354 14Q303 14 268 1Q232-13 210-34Q188-55 176-77L176-77L162-77L162 200ZM333-56L333-56Q409-56 457-105Q504-153 504-240L504-240L504-249Q504-336 457-385Q409-433 333-433L333-433Q258-433 210-385Q161-336 161-249L161-249L161-240Q161-153 210-105Q258-56 333-56Z"/><path id="gn" d="M307 14L307 14Q233 14 177-18Q121-49 90-106Q59-163 59-238L59-238L59-250Q59-326 90-383Q121-440 176-472Q231-503 302-503L302-503Q371-503 424-474Q477-444 507-389Q537-334 537-260L537-260L537-224L138-224Q141-145 189-101Q237-56 309-56L309-56Q372-56 406-85Q440-114 458-154L458-154L526-121Q511-90 485-59Q458-28 416-7Q373 14 307 14ZM139-289L139-289L457-289Q453-357 411-395Q368-433 302-433L302-433Q235-433 192-395Q149-357 139-289Z"/><path id="go" d="M162 0L83 0L83-700L162-700L162-411L176-411Q186-433 207-453Q227-472 260-485Q292-498 342-498L342-498Q397-498 441-475Q484-451 510-407Q536-362 536-296L536-296L536 0L457 0L457-290Q457-363 421-396Q384-429 322-429L322-429Q251-429 207-383Q162-337 162-246L162-246L162 0Z"/><path id="gp" d="M309 14L309 14Q235 14 179-17Q122-48 91-105Q59-161 59-238L59-238L59-251Q59-327 91-384Q122-441 179-472Q235-503 309-503L309-503Q383-503 440-472Q496-441 528-384Q559-327 559-251L559-251L559-238Q559-161 528-105Q496-48 440-17Q383 14 309 14ZM309-57L309-57Q387-57 434-107Q480-156 480-240L480-240L480-249Q480-333 434-383Q387-432 309-432L309-432Q232-432 185-383Q138-333 138-249L138-249L138-240Q138-156 185-107Q232-57 309-57Z"/><path id="gq" d="M162 0L83 0L83-489L160-489L160-406L174-406Q190-441 229-470Q267-498 342-498L342-498Q397-498 441-475Q484-452 510-407Q536-362 536-296L536-296L536 0L457 0L457-290Q457-363 421-396Q384-429 322-429L322-429Q251-429 207-383Q162-337 162-246L162-246L162 0Z"/><path id="gr" d="M59-242L59-242L59-256Q59-333 90-388Q121-443 174-473Q227-503 290-503L290-503Q367-503 409-474Q450-444 470-408L470-408L484-408L484-489L559-489L559 114Q559 154 537 177Q515 200 473 200L473 200L141 200L141 130L452 130Q482 130 482 100L482 100L482-86L468-86Q456-64 434-43Q412-22 377-9Q342 5 290 5L290 5Q227 5 174-25Q121-55 90-111Q59-166 59-242ZM311-65L311-65Q387-65 435-113Q482-161 482-245L482-245L482-253Q482-338 435-386Q387-433 311-433L311-433Q236-433 188-386Q139-338 139-253L139-253L139-245Q139-161 188-113Q236-65 311-65Z"/><path id="gs" d="M107 125L75 125L75 75L104 75Q140 75 140 39L140 39L140 7L126 7Q97 7 78-11Q58-29 58-56L58-56Q58-85 78-103Q97-121 126-121L126-121Q155-121 174-102Q193-83 193-54L193-54L193 39Q193 125 107 125L107 125Z"/><path id="gt" d="M393 0L263 0Q221 0 199-23Q176-46 176-86L176-86L176-420L29-420L29-489L176-489L176-663L255-663L255-489L415-489L415-420L255-420L255-98Q255-68 284-68L284-68L393-68L393 0Z"/><path id="gu" d="M290 14L290 14Q227 14 174-16Q121-46 90-103Q59-160 59-238L59-238L59-251Q59-329 90-386Q121-442 174-473Q226-503 290-503L290-503Q341-503 377-490Q412-476 434-456Q456-435 468-412L468-412L482-412L482-700L561-700L561 0L484 0L484-81L470-81Q450-44 408-15Q366 14 290 14ZM311-56L311-56Q387-56 435-105Q482-153 482-240L482-240L482-249Q482-336 435-385Q387-433 311-433L311-433Q236-433 188-385Q139-336 139-249L139-249L139-240Q139-153 188-105Q236-56 311-56Z"/><path id="gv" d="M162 0L83 0L83-489L160-489L160-428L174-428Q188-454 220-476Q252-498 310-498L310-498Q367-498 403-473Q438-448 454-412L454-412L468-412Q485-448 520-473Q554-498 616-498L616-498Q665-498 702-478Q739-458 761-421Q782-383 782-331L782-331L782 0L703 0L703-324Q703-373 675-402Q646-430 595-430L595-430Q541-430 507-395Q472-360 472-294L472-294L472 0L393 0L393-324Q393-373 365-402Q336-430 285-430L285-430Q231-430 197-395Q162-360 162-294L162-294L162 0Z"/><path id="gw" d="M270 9L270 9Q217 9 173-14Q128-37 103-83Q77-128 77-193L77-193L77-489L156-489L156-199Q156-126 193-93Q229-60 291-60L291-60Q361-60 406-106Q451-152 451-243L451-243L451-489L530-489L530 0L453 0L453-83L439-83Q423-48 384-20Q345 9 270 9Z"/><path id="gx" d="M162 0L83 0L83-700L162-700L162 0Z"/><path id="gy" d="M375-221L79-221L79-294L375-294L375-221Z"/><path id="gz" d="M333 0L207 0L32-489L116-489L263-59L277-59L424-489L508-489L333 0Z"/><path id="g10" d="M164 0L80 0L80-700L164-700L164 0Z"/><path id="g11" d="M258 0L179 0L179-420L29-420L29-489L179-489L179-614Q179-654 202-677Q224-700 266-700L266-700L389-700L389-632L288-632Q258-632 258-602L258-602L258-489L412-489L412-420L258-420L258 0Z"/><path id="g12" d="M126 14L126 14Q97 14 78-5Q58-24 58-54L58-54Q58-84 78-103Q97-122 126-122L126-122Q156-122 175-103Q194-84 194-54L194-54Q194-24 175-5Q156 14 126 14Z"/><path id="g13" d="M195 0L88 0L88-731L529-731L529-631L193-631L193-413L503-413L503-313L195-313L195 0Z"/><path id="g14" d="M245 10L245 10Q159 10 110-35Q60-79 60-156L60-156Q60-234 113-279Q165-323 257-323L257-323L410-323L410-374Q410-419 382-444Q354-469 303-469L303-469Q258-469 228-450Q198-430 193-398L193-398L87-398Q96-472 156-516Q215-560 306-560L306-560Q404-560 461-511Q518-461 518-376L518-376L518 0L413 0L413-101L412-101Q405-55 367-26L367-26Q321 10 245 10ZM277-73L277-73Q335-73 373-103Q410-132 410-178L410-178L410-250L259-250Q217-250 193-227Q168-204 168-164L168-164Q168-122 197-98Q226-73 277-73Z"/><path id="g15" d="M324 9L281 9Q222 9 178-10Q133-29 108-63Q82-96 78-142L78-142L186-142Q190-115 215-99Q240-82 281-82L281-82L324-82Q373-82 398-102Q423-122 423-155L423-155Q423-187 401-206Q378-224 334-230L334-230L263-241Q175-255 134-292Q92-328 92-400L92-400Q92-476 142-518Q191-559 288-559L288-559L326-559Q412-559 464-520Q515-480 522-414L522-414L414-414Q410-438 388-453Q365-468 326-468L326-468L288-468Q241-468 220-451Q198-433 198-399L198-399Q198-369 217-354Q236-339 276-333L276-333L349-321Q442-308 486-270Q529-231 529-158L529-158Q529-79 478-35Q426 9 324 9L324 9Z"/><path id="g16" d="M514 0L360 0Q285 0 243-41Q201-82 201-155L201-155L201-452L49-452L49-550L201-550L201-705L309-705L309-550L524-550L524-452L309-452L309-155Q309-98 364-98L364-98L514-98L514 0Z"/><path id="g17" d="M153 0L43 0L229-730L371-730L557 0L448 0L404-185L197-185L153 0ZM267-486L217-274L383-274L333-485Q320-541 312-583Q303-624 300-639L300-639Q297-624 289-583Q281-541 267-486L267-486Z"/><path id="g18" d="M192 0L84 0L84-730L323-730Q394-730 447-703Q499-676 528-627Q556-577 556-510L556-510Q556-444 527-394Q498-344 446-317Q394-290 323-290L323-290L192-290L192 0ZM192-633L192-387L323-387Q379-387 413-421Q446-454 446-510L446-510Q446-567 413-600Q379-633 323-633L323-633L192-633Z"/><path id="g19" d="M502 0L98 0L98-96L245-96L245-634L98-634L98-730L502-730L502-634L355-634L355-96L502-96L502 0Z"/><path id="g1a" d="M554 0L379 0Q328 0 290-21Q252-41 231-79Q209-117 209-167L209-167L209-632L29-632L29-730L317-730L317-167Q317-135 335-117Q353-98 384-98L384-98L554-98L554 0Z"/><path id="g1b" d="M299 10L299 10Q200 10 141-48Q82-105 82-204L82-204L82-550L190-550L190-204Q190-147 219-116Q248-84 299-84L299-84Q351-84 381-116Q410-147 410-204L410-204L410-550L518-550L518-204Q518-105 459-48Q399 10 299 10Z"/><path id="g1c" d="M300 10L300 10Q233 10 183-17Q132-43 105-91Q78-139 78-203L78-203L78-347Q78-412 105-460Q132-507 183-534Q233-560 300-560L300-560Q368-560 418-534Q468-507 495-460Q522-412 522-347L522-347L522-249L182-249L182-203Q182-142 213-110Q243-78 301-78L301-78Q348-78 377-95Q406-111 413-143L413-143L520-143Q508-73 448-32Q388 10 300 10ZM182-322L418-323L418-348Q418-408 388-441Q358-474 300-474L300-474Q243-474 213-441Q182-408 182-347L182-347L182-322Z"/><path id="g1d" d="M210 0L102 0L102-550L206-550L206-448Q216-488 238-515L238-515Q277-560 354-560L354-560Q442-560 494-506Q545-451 545-356L545-356L545-319L434-319L434-347Q434-406 405-438Q375-469 322-469Q269-469 240-437Q210-405 210-347L210-347L210 0Z"/><path id="g1e" d="M303 10L303 10Q229 10 176-15Q123-39 94-85Q65-130 65-193L65-193L172-193Q172-143 207-115Q242-86 304-86L304-86Q362-86 395-114Q428-142 428-191L428-191Q428-232 406-262Q383-292 341-303L341-303L249-330Q169-353 126-409Q82-464 82-541L82-541Q82-601 109-646Q136-691 186-716Q236-741 304-741L304-741Q404-741 465-687Q525-633 526-542L526-542L418-542Q418-590 388-618Q357-645 302-645L302-645Q249-645 219-620Q189-594 189-548L189-548Q189-507 212-477Q234-447 276-435L276-435L369-407Q449-385 492-329Q535-273 535-195L535-195Q535-134 506-88Q477-41 425-16Q373 10 303 10Z"/><path id="g1f" d="M228 0L113 0L28-550L119-550L170-187Q174-162 178-132Q181-101 183-81L183-81Q185-101 190-131Q194-161 198-187L198-187L255-550L346-550L402-187Q406-161 411-131Q415-100 417-80L417-80Q419-101 424-132Q428-162 432-187L432-187L484-550L572-550L484 0L370 0L316-359Q312-387 307-419Q302-450 300-469L300-469Q297-450 293-419L293-419L284-359L228 0Z"/><path id="g1g" d="M556 0L81 0L81-98L274-98L274-452L106-452L106-550L379-550L379-98L556-98L556 0ZM316-645L316-645Q281-645 260-664Q239-682 239-713L239-713Q239-745 260-764Q281-782 316-782L316-782Q351-782 372-764Q393-745 393-713L393-713Q393-682 372-664Q351-645 316-645Z"/><path id="g1h" d="M320 0L213 0L213-394L57-394L57-492L213-492L213-581Q213-650 257-690Q301-730 377-730L377-730L538-730L538-634L379-634Q351-634 336-620Q320-606 320-580L320-580L320-492L538-492L538-394L320-394L320 0Z"/><path id="g1i" d="M192 180L84 180L84-550L191-550L191-445L193-445Q199-493 232-523L232-523Q272-560 340-560L340-560Q423-560 473-505Q522-449 522-353L522-353L522-198Q522-134 500-88Q477-41 437-16Q396 10 340 10L340 10Q273 10 232-28L232-28Q199-57 193-105L193-105L189-105L192 23L192 180ZM303-84L303-84Q356-84 386-115Q415-145 415-203L415-203L415-347Q415-405 386-436Q356-466 303-466L303-466Q252-466 222-435Q192-403 192-347L192-347L192-203Q192-147 222-116Q252-84 303-84Z"/><path id="g1j" d="M304 10L304 10Q236 10 185-16Q133-41 106-90Q78-138 78-203L78-203L78-347Q78-413 106-461Q133-509 185-535Q236-560 304-560L304-560Q403-560 463-508Q523-456 526-366L526-366L418-366Q415-413 385-439Q355-465 304-465L304-465Q249-465 217-435Q185-404 185-348L185-348L185-203Q185-147 217-116Q249-85 304-85L304-85Q355-85 385-111Q415-137 418-184L418-184L526-184Q523-94 463-42Q403 10 304 10Z"/><path id="g1k" d="M192 0L84 0L84-730L192-730L192-550L191-445L193-445Q199-493 230-523L230-523Q269-560 338-560L338-560Q420-560 469-508Q518-455 518-366L518-366L518 0L410 0L410-354Q410-408 381-438Q352-468 302-468L302-468Q251-468 222-437Q192-405 192-347L192-347L192 0Z"/><clipPath id="c"><rect width="400" height="208" rx="16"/></clipPath></defs><rect width="400" height="208" rx="16" fill="#FFFFFF"/><g clip-path="url(#c)"><rect width="400" height="3" fill="#16A34A"/></g><rect x=".5" y=".5" width="399" height="207" rx="15.5" fill="none" stroke="#CBD5E1"/><g transform="translate(20 22) scale(1.08)" fill="none" stroke="#16A34A" stroke-width="1.62" stroke-linecap="round" stroke-linejoin="round"><rect x="9" y="2" width="6" height="12" rx="3"/><path d="M5 11a7 7 0 0 0 14 0M12 18v4M8 22h8"/></g><g fill="#526173"><use href="#g0" transform="matrix(0.012 0 0 0.012 365.6 38)"/><use href="#g1" transform="matrix(0.012 0 0 0.012 372.8 38)"/></g><g fill="#0F172A"><use href="#g2" transform="matrix(0.018 0 0 0.018 20 80)"/><use href="#g3" transform="matrix(0.018 0 0 0.018 30.94 80)"/><use href="#g4" transform="matrix(0.018 0 0 0.018 42.45 80)"/><use href="#g4" transform="matrix(0.018 0 0 0.018 52.9 80)"/><use href="#g5" transform="matrix(0.018 0 0 0.018 63.36 80)"/><use href="#g6" transform="matrix(0.018 0 0 0.018 73.96 80)"/><use href="#g8" transform="matrix(0.018 0 0 0.018 89.62 80)"/><use href="#g9" transform="matrix(0.018 0 0 0.018 104.69 80)"/><use href="#ga" transform="matrix(0.018 0 0 0.018 115.24 80)"/><use href="#gb" transform="matrix(0.018 0 0 0.018 126.27 80)"/><use href="#g5" transform="matrix(0.018 0 0 0.018 130.97 80)"/><use href="#g4" transform="matrix(0.018 0 0 0.018 141.57 80)"/><use href="#gc" transform="matrix(0.018 0 0 0.018 156.4 80)"/><use href="#gd" transform="matrix(0.018 0 0 0.018 167.8 80)"/></g><g fill="#526173"><use href="#ge" transform="matrix(0.0135 0 0 0.0135 20 104)"/><use href="#gf" transform="matrix(0.0135 0 0 0.0135 28.51 104)"/><use href="#gg" transform="matrix(0.0135 0 0 0.0135 33.37 104)"/><use href="#gh" transform="matrix(0.0135 0 0 0.0135 41.13 104)"/><use href="#gi" transform="matrix(0.0135 0 0 0.0135 49.82 104)"/><use href="#gj" transform="matrix(0.0135 0 0 0.0135 53.13 104)"/><use href="#gl" transform="matrix(0.0135 0 0 0.0135 64.67 104)"/><use href="#gm" transform="matrix(0.0135 0 0 0.0135 71.79 104)"/><use href="#gn" transform="matrix(0.0135 0 0 0.0135 80.48 104)"/><use href="#gn" transform="matrix(0.0135 0 0 0.0135 88.47 104)"/><use href="#gj" transform="matrix(0.0135 0 0 0.0135 96.46 104)"/><use href="#go" transform="matrix(0.0135 0 0 0.0135 104.54 104)"/><use href="#gm" transform="matrix(0.0135 0 0 0.0135 116.28 104)"/><use href="#gf" transform="matrix(0.0135 0 0 0.0135 124.98 104)"/><use href="#gp" transform="matrix(0.0135 0 0 0.0135 129.82 104)"/><use href="#gj" transform="matrix(0.0135 0 0 0.0135 138.17 104)"/><use href="#gn" transform="matrix(0.0135 0 0 0.0135 146.24 104)"/><use href="#gl" transform="matrix(0.0135 0 0 0.0135 154.23 104)"/><use href="#gl" transform="matrix(0.0135 0 0 0.0135 161.35 104)"/><use href="#gi" transform="matrix(0.0135 0 0 0.0135 168.46 104)"/><use href="#gq" transform="matrix(0.0135 0 0 0.0135 171.77 104)"/><use href="#gr" transform="matrix(0.0135 0 0 0.0135 180.04 104)"/><use href="#gs" transform="matrix(0.0135 0 0 0.0135 188.71 104)"/><use href="#gt" transform="matrix(0.0135 0 0 0.0135 195.12 104)"/><use href="#gf" transform="matrix(0.0135 0 0 0.0135 201.33 104)"/><use href="#gg" transform="matrix(0.0135 0 0 0.0135 206.19 104)"/><use href="#gq" transform="matrix(0.0135 0 0 0.0135 213.95 104)"/><use href="#gl" transform="matrix(0.0135 0 0 0.0135 222.23 104)"/><use href="#gj" transform="matrix(0.0135 0 0 0.0135 229.34 104)"/><use href="#gf" transform="matrix(0.0135 0 0 0.0135 237.42 104)"/><use href="#gi" transform="matrix(0.0135 0 0 0.0135 242.51 104)"/><use href="#gm" transform="matrix(0.0135 0 0 0.0135 245.81 104)"/><use href="#gt" transform="matrix(0.0135 0 0 0.0135 254.24 104)"/><use href="#gi" transform="matrix(0.0135 0 0 0.0135 260.45 104)"/><use href="#gp" transform="matrix(0.0135 0 0 0.0135 263.76 104)"/><use href="#gq" transform="matrix(0.0135 0 0 0.0135 272.1 104)"/><use href="#gs" transform="matrix(0.0135 0 0 0.0135 280.37 104)"/><use href="#gj" transform="matrix(0.0135 0 0 0.0135 286.79 104)"/><use href="#gg" transform="matrix(0.0135 0 0 0.0135 294.86 104)"/><use href="#gm" transform="matrix(0.0135 0 0 0.0135 302.62 104)"/><use href="#gt" transform="matrix(0.0135 0 0 0.0135 311.05 104)"/><use href="#gi" transform="matrix(0.0135 0 0 0.0135 317.26 104)"/><use href="#gp" transform="matrix(0.0135 0 0 0.0135 320.56 104)"/><use href="#gq" transform="matrix(0.0135 0 0 0.0135 328.91 104)"/><use href="#gl" transform="matrix(0.0135 0 0 0.0135 337.18 104)"/><use href="#gg" transform="matrix(0.0135 0 0 0.0135 347.77 104)"/><use href="#gq" transform="matrix(0.0135 0 0 0.0135 355.53 104)"/><use href="#gu" transform="matrix(0.0135 0 0 0.0135 363.8 104)"/></g><g fill="#526173"><use href="#gv" transform="matrix(0.0135 0 0 0.0135 20 123)"/><use href="#gw" transform="matrix(0.0135 0 0 0.0135 31.5 123)"/><use href="#gx" transform="matrix(0.0135 0 0 0.0135 39.76 123)"/><use href="#gt" transform="matrix(0.0135 0 0 0.0135 43.07 123)"/><use href="#gi" transform="matrix(0.0135 0 0 0.0135 49.28 123)"/><use href="#gy" transform="matrix(0.0135 0 0 0.0135 52.59 123)"/><use href="#gm" transform="matrix(0.0135 0 0 0.0135 58.73 123)"/><use href="#gf" transform="matrix(0.0135 0 0 0.0135 67.43 123)"/><use href="#gp" transform="matrix(0.0135 0 0 0.0135 72.27 123)"/><use href="#gz" transform="matrix(0.0135 0 0 0.0135 80.35 123)"/><use href="#gi" transform="matrix(0.0135 0 0 0.0135 87.62 123)"/><use href="#gu" transform="matrix(0.0135 0 0 0.0135 90.93 123)"/><use href="#gn" transform="matrix(0.0135 0 0 0.0135 99.62 123)"/><use href="#gf" transform="matrix(0.0135 0 0 0.0135 107.62 123)"/><use href="#ge" transform="matrix(0.0135 0 0 0.0135 116 123)"/><use href="#g10" transform="matrix(0.0135 0 0 0.0135 124.5 123)"/><use href="#g11" transform="matrix(0.0135 0 0 0.0135 131.27 123)"/><use href="#gg" transform="matrix(0.0135 0 0 0.0135 137.11 123)"/><use href="#gi" transform="matrix(0.0135 0 0 0.0135 144.88 123)"/><use href="#gx" transform="matrix(0.0135 0 0 0.0135 148.18 123)"/><use href="#gp" transform="matrix(0.0135 0 0 0.0135 151.49 123)"/><use href="#gz" transform="matrix(0.0135 0 0 0.0135 159.56 123)"/><use href="#gn" transform="matrix(0.0135 0 0 0.0135 166.57 123)"/><use href="#gf" transform="matrix(0.0135 0 0 0.0135 174.56 123)"/><use href="#g12" transform="matrix(0.0135 0 0 0.0135 178.79 123)"/></g><rect x="20.5" y="164.5" width="59" height="23" rx="6" fill="#EEF3F8" stroke="#16A34A" stroke-opacity="0.45"/><g fill="#526173"><use href="#g13" transform="matrix(0.01 0 0 0.01 29 179.65)"/><use href="#g14" transform="matrix(0.01 0 0 0.01 35 179.65)"/><use href="#g15" transform="matrix(0.01 0 0 0.01 41 179.65)"/><use href="#g16" transform="matrix(0.01 0 0 0.01 47 179.65)"/><use href="#g17" transform="matrix(0.01 0 0 0.01 53 179.65)"/><use href="#g18" transform="matrix(0.01 0 0 0.01 59 179.65)"/><use href="#g19" transform="matrix(0.01 0 0 0.01 65 179.65)"/></g><rect x="86.5" y="164.5" width="59" height="23" rx="6" fill="#EEF3F8" stroke="#16A34A" stroke-opacity="0.45"/><g fill="#526173"><use href="#g13" transform="matrix(0.01 0 0 0.01 95 179.65)"/><use href="#g1a" transform="matrix(0.01 0 0 0.01 101 179.65)"/><use href="#g1b" transform="matrix(0.01 0 0 0.01 107 179.65)"/><use href="#g16" transform="matrix(0.01 0 0 0.01 113 179.65)"/><use href="#g16" transform="matrix(0.01 0 0 0.01 119 179.65)"/><use href="#g1c" transform="matrix(0.01 0 0 0.01 125 179.65)"/><use href="#g1d" transform="matrix(0.01 0 0 0.01 131 179.65)"/></g><rect x="152.5" y="164.5" width="47" height="23" rx="6" fill="#EEF3F8" stroke="#16A34A" stroke-opacity="0.45"/><g fill="#526173"><use href="#g1e" transform="matrix(0.01 0 0 0.01 161 179.65)"/><use href="#g1f" transform="matrix(0.01 0 0 0.01 167 179.65)"/><use href="#g1g" transform="matrix(0.01 0 0 0.01 173 179.65)"/><use href="#g1h" transform="matrix(0.01 0 0 0.01 179 179.65)"/><use href="#g16" transform="matrix(0.01 0 0 0.01 185 179.65)"/></g><rect x="206.5" y="164.5" width="71" height="23" rx="6" fill="#EEF3F8" stroke="#16A34A" stroke-opacity="0.45"/><g fill="#526173"><use href="#g1e" transform="matrix(0.01 0 0 0.01 215 179.65)"/><use href="#g1i" transform="matrix(0.01 0 0 0.01 221 179.65)"/><use href="#g1c" transform="matrix(0.01 0 0 0.01 227 179.65)"/><use href="#g1c" transform="matrix(0.01 0 0 0.01 233 179.65)"/><use href="#g1j" transform="matrix(0.01 0 0 0.01 239 179.65)"/><use href="#g1k" transform="matrix(0.01 0 0 0.01 245 179.65)"/><use href="#g17" transform="matrix(0.01 0 0 0.01 257 179.65)"/><use href="#g19" transform="matrix(0.01 0 0 0.01 263 179.65)"/></g></svg>