<svg xmlns="http://www.w3.org/2000/svg" width="400" height="206" viewBox="0 0 400 206" role="img" aria-labelledby="t d"><title id="t">BACKEND</title><desc id="d">Laravel, PHP, Python, Go, Postgres, Redis, FastAPI, Octane, Reverb, Sanctum, Queues, WebSockets, REST APIs, MySQL</desc><defs><path id="g0" d="M314 0L85 0L85-730L300-730Q404-730 463-680Q522-630 522-542L522-542Q522-492 501-456Q479-419 441-399L441-399Q423-390 402-385L402-385Q427-380 449-369L449-369Q491-347 515-305Q539-263 539-205L539-205Q539-143 512-97Q484-50 434-25Q383 0 314 0L314 0ZM190-334L190-93L305-93Q363-93 397-124Q431-155 431-210L431-210Q431-266 397-300Q363-334 305-334L305-334L190-334ZM190-637L190-424L299-424Q353-424 384-453Q415-482 415-531Q415-580 384-609Q353-637 300-637L300-637L190-637Z"/><path id="g1" d="M153 0L43 0L229-730L371-730L557 0L448 0L404-185L197-185L153 0ZM267-486L217-274L383-274L333-485Q320-541 312-583Q303-624 300-639L300-639Q297-624 289-583Q281-541 267-486L267-486Z"/><path id="g2" d="M304 10L304 10Q236 10 186-16Q135-41 108-90Q80-138 80-203L80-203L80-527Q80-593 108-641Q135-689 186-715Q236-740 304-740L304-740Q372-740 422-714Q472-688 500-641Q527-593 527-527L527-527L419-527Q419-584 389-614Q359-644 304-644L304-644Q249-644 219-614Q188-584 188-528L188-528L188-203Q188-147 219-117Q249-86 304-86L304-86Q359-86 389-117Q419-147 419-203L419-203L527-203Q527-138 500-90Q472-42 422-16Q372 10 304 10Z"/><path id="g3" d="M192 0L84 0L84-730L192-730L192-426L289-426L438-730L556-730L384-380L564 0L443 0L287-329L192-329L192 0Z"/><path id="g4" d="M523 0L94 0L94-730L523-730L523-634L200-634L200-427L488-427L488-332L200-332L200-96L523-96L523 0Z"/><path id="g5" d="M181 0L81 0L81-730L217-730L430-123Q428-152 425-192Q422-232 421-275Q419-318 419-353L419-353L419-730L519-730L519 0L383 0L171-607Q173-581 176-542Q178-503 180-461Q181-419 181-383L181-383L181 0Z"/><path id="g6" d="M287 0L83 0L83-730L287-730Q359-730 412-703Q465-675 495-625Q524-575 524-507L524-507L524-224Q524-157 495-106Q465-55 412-28Q359 0 287 0L287 0ZM191-632L191-98L287-98Q347-98 382-132Q416-165 416-224L416-224L416-507Q416-565 382-599Q347-632 287-632L287-632L191-632Z"/><path id="g7" d="M536 0L109 0L109-730L217-730L217-99L536-99L536 0Z"/><path id="g8" d="M245 10L245 10Q159 10 110-35Q60-79 60-156L60-156Q60-234 113-279Q165-323 257-323L257-323L410-323L410-374Q410-419 382-444Q354-469 303-469L303-469Q258-469 228-450Q198-430 193-398L193-398L87-398Q96-472 156-516Q215-560 306-560L306-560Q404-560 461-511Q518-461 518-376L518-376L518 0L413 0L413-101L412-101Q405-55 367-26L367-26Q321 10 245 10ZM277-73L277-73Q335-73 373-103Q410-132 410-178L410-178L410-250L259-250Q217-250 193-227Q168-204 168-164L168-164Q168-122 197-98Q226-73 277-73Z"/><path id="g9" d="M210 0L102 0L102-550L206-550L206-448Q216-488 238-515L238-515Q277-560 354-560L354-560Q442-560 494-506Q545-451 545-356L545-356L545-319L434-319L434-347Q434-406 405-438Q375-469 322-469Q269-469 240-437Q210-405 210-347L210-347L210 0Z"/><path id="ga" d="M371 0L229 0L47-550L157-550L270-198Q281-167 290-136Q298-104 302-86L302-86Q307-104 316-136Q324-167 333-198L333-198L444-550L553-550L371 0Z"/><path id="gb" d="M300 10L300 10Q233 10 183-17Q132-43 105-91Q78-139 78-203L78-203L78-347Q78-412 105-460Q132-507 183-534Q233-560 300-560L300-560Q368-560 418-534Q468-507 495-460Q522-412 522-347L522-347L522-249L182-249L182-203Q182-142 213-110Q243-78 301-78L301-78Q348-78 377-95Q406-111 413-143L413-143L520-143Q508-73 448-32Q388 10 300 10ZM182-322L418-323L418-348Q418-408 388-441Q358-474 300-474L300-474Q243-474 213-441Q182-408 182-347L182-347L182-322Z"/><path id="gc" d="M554 0L379 0Q328 0 290-21Q252-41 231-79Q209-117 209-167L209-167L209-632L29-632L29-730L317-730L317-167Q317-135 335-117Q353-98 384-98L384-98L554-98L554 0Z"/><path id="gd" d="M192 0L84 0L84-730L323-730Q394-730 447-703Q499-676 528-627Q556-577 556-510L556-510Q556-444 527-394Q498-344 446-317Q394-290 323-290L323-290L192-290L192 0ZM192-633L192-387L323-387Q379-387 413-421Q446-454 446-510L446-510Q446-567 413-600Q379-633 323-633L323-633L192-633Z"/><path id="ge" d="M193 0L85 0L85-730L193-730L193-428L407-428L407-730L515-730L515 0L407 0L407-328L193-328L193 0Z"/><path id="gf" d="M286 180L172 180L251-32L46-550L165-550L280-240Q287-220 294-192Q301-164 306-146L306-146Q310-164 317-192Q324-220 331-240L331-240L439-550L554-550L286 180Z"/><path id="gg" d="M514 0L360 0Q285 0 243-41Q201-82 201-155L201-155L201-452L49-452L49-550L201-550L201-705L309-705L309-550L524-550L524-452L309-452L309-155Q309-98 364-98L364-98L514-98L514 0Z"/><path id="gh" d="M192 0L84 0L84-730L192-730L192-550L191-445L193-445Q199-493 230-523L230-523Q269-560 338-560L338-560Q420-560 469-508Q518-455 518-366L518-366L518 0L410 0L410-354Q410-408 381-438Q352-468 302-468L302-468Q251-468 222-437Q192-405 192-347L192-347L192 0Z"/><path id="gi" d="M300 9L300 9Q232 9 182-17Q132-43 105-91Q78-139 78-204L78-204L78-346Q78-412 105-460Q132-507 182-533Q232-559 300-559L300-559Q368-559 418-533Q468-507 495-460Q522-412 522-346L522-346L522-204Q522-139 495-91Q468-43 418-17Q368 9 300 9ZM300-86L300-86Q355-86 385-117Q415-147 415-204L415-204L415-346Q415-404 385-434Q355-464 300-464L300-464Q246-464 216-434Q185-404 185-346L185-346L185-204Q185-147 216-117Q246-86 300-86Z"/><path id="gj" d="M192 0L84 0L84-550L191-550L191-445L193-445Q199-493 230-523L230-523Q269-560 338-560L338-560Q420-560 469-508Q518-455 518-366L518-366L518 0L410 0L410-354Q410-408 381-437Q352-466 302-466L302-466Q251-466 222-436Q192-405 192-347L192-347L192 0Z"/><path id="gk" d="M304 10L304 10Q236 10 186-16Q135-41 108-90Q80-138 80-203L80-203L80-527Q80-593 108-641Q135-689 186-715Q236-740 304-740L304-740Q372-740 422-714Q472-688 500-641Q527-593 527-527L527-527L419-527Q419-584 389-614Q359-644 304-644L304-644Q249-644 219-614Q188-584 188-528L188-528L188-203Q188-147 219-116Q249-85 304-85L304-85Q359-85 389-116Q419-147 419-203L419-203L419-285L283-285L283-380L527-380L527-203Q527-138 500-90Q472-42 422-16Q372 10 304 10Z"/><path id="gl" d="M324 9L281 9Q222 9 178-10Q133-29 108-63Q82-96 78-142L78-142L186-142Q190-115 215-99Q240-82 281-82L281-82L324-82Q373-82 398-102Q423-122 423-155L423-155Q423-187 401-206Q378-224 334-230L334-230L263-241Q175-255 134-292Q92-328 92-400L92-400Q92-476 142-518Q191-559 288-559L288-559L326-559Q412-559 464-520Q515-480 522-414L522-414L414-414Q410-438 388-453Q365-468 326-468L326-468L288-468Q241-468 220-451Q198-433 198-399L198-399Q198-369 217-354Q236-339 276-333L276-333L349-321Q442-308 486-270Q529-231 529-158L529-158Q529-79 478-35Q426 9 324 9L324 9Z"/><path id="gm" d="M326 180L156 180L156 87L325 87Q367 87 388 67Q408 47 408 8L408 8L408-47L410-149L408-149Q403-100 370-70L370-70Q330-34 263-34L263-34Q178-34 129-90Q80-146 80-241L80-241L80-353Q80-448 129-504Q178-560 263-560L263-560Q330-560 370-524L370-524Q402-493 408-445L408-445L409-445L408-550L515-550L515 10Q515 89 465 135Q415 180 326 180L326 180ZM298-127L298-127Q349-127 379-159Q408-190 408-246L408-246L408-347Q408-403 379-435Q349-466 298-466L298-466Q245-466 217-436Q188-405 188-347L188-347L188-246Q188-189 217-158Q245-127 298-127Z"/><path id="gn" d="M192 0L84 0L84-730L313-730Q382-730 433-704Q484-677 513-629Q541-581 541-516L541-516Q541-443 504-390Q466-336 402-314L402-314L551 0L428 0L295-300L192-300L192 0ZM192-634L192-395L313-395Q367-395 399-428Q431-460 431-514L431-514Q431-570 399-602Q367-634 313-634L313-634L192-634Z"/><path id="go" d="M261 10L261 10Q178 10 128-46Q78-102 78-197L78-197L78-352Q78-448 128-504Q178-560 261-560L261-560Q329-560 369-523L369-523Q401-493 407-445L407-445L411-445L408-573L408-730L516-730L516 0L409 0L409-105L407-105Q401-57 369-28L369-28Q329 10 261 10ZM298-84L298-84Q349-84 379-116Q408-147 408-203L408-203L408-347Q408-403 379-435Q349-466 298-466L298-466Q245-466 215-436Q185-405 185-347L185-347L185-203Q185-145 215-115Q245-84 298-84Z"/><path id="gp" d="M556 0L81 0L81-98L274-98L274-452L106-452L106-550L379-550L379-98L556-98L556 0ZM316-645L316-645Q281-645 260-664Q239-682 239-713L239-713Q239-745 260-764Q281-782 316-782L316-782Q351-782 372-764Q393-745 393-713L393-713Q393-682 372-664Q351-645 316-645Z"/><path id="gq" d="M195 0L88 0L88-731L529-731L529-631L193-631L193-413L503-413L503-313L195-313L195 0Z"/><path id="gr" d="M502 0L98 0L98-96L245-96L245-634L98-634L98-730L502-730L502-634L355-634L355-96L502-96L502 0Z"/><path id="gs" d="M300 10L300 10Q232 10 183-16Q133-41 107-90Q80-138 80-203L80-203L80-527Q80-593 107-641Q133-689 183-715Q232-740 300-740L300-740Q368-740 418-715Q467-689 494-641Q520-593 520-528L520-528L520-203Q520-138 494-90Q467-41 418-16Q368 10 300 10ZM300-86L300-86Q355-86 384-117Q412-147 412-203L412-203L412-527Q412-584 384-614Q355-644 300-644L300-644Q246-644 217-614Q188-584 188-527L188-527L188-203Q188-147 217-117Q246-86 300-86Z"/><path id="gt" d="M304 10L304 10Q236 10 185-16Q133-41 106-90Q78-138 78-203L78-203L78-347Q78-413 106-461Q133-509 185-535Q236-560 304-560L304-560Q403-560 463-508Q523-456 526-366L526-366L418-366Q415-413 385-439Q355-465 304-465L304-465Q249-465 217-435Q185-404 185-348L185-348L185-203Q185-147 217-116Q249-85 304-85L304-85Q355-85 385-111Q415-137 418-184L418-184L526-184Q523-94 463-42Q403 10 304 10Z"/><path id="gu" d="M339 10L339 10Q271 10 231-28L231-28Q199-57 193-105L193-105L191-105L191 0L84 0L84-730L192-730L192-573L189-445L193-445Q199-493 232-523L232-523Q272-560 339-560L339-560Q422-560 472-504Q522-448 522-352L522-352L522-197Q522-102 472-46Q422 10 339 10ZM302-84L302-84Q355-84 385-115Q415-145 415-203L415-203L415-347Q415-405 385-436Q355-466 302-466L302-466Q251-466 222-435Q192-403 192-347L192-347L192-203Q192-147 222-116Q251-84 302-84Z"/><path id="gv" d="M303 10L303 10Q229 10 176-15Q123-39 94-85Q65-130 65-193L65-193L172-193Q172-143 207-115Q242-86 304-86L304-86Q362-86 395-114Q428-142 428-191L428-191Q428-232 406-262Q383-292 341-303L341-303L249-330Q169-353 126-409Q82-464 82-541L82-541Q82-601 109-646Q136-691 186-716Q236-741 304-741L304-741Q404-741 465-687Q525-633 526-542L526-542L418-542Q418-590 388-618Q357-645 302-645L302-645Q249-645 219-620Q189-594 189-548L189-548Q189-507 212-477Q234-447 276-435L276-435L369-407Q449-385 492-329Q535-273 535-195L535-195Q535-134 506-88Q477-41 425-16Q373 10 303 10Z"/><path id="gw" d="M299 10L299 10Q200 10 141-48Q82-105 82-204L82-204L82-550L190-550L190-204Q190-147 219-116Q248-84 299-84L299-84Q351-84 381-116Q410-147 410-204L410-204L410-550L518-550L518-204Q518-105 459-48Q399 10 299 10Z"/><path id="gx" d="M156 0L59 0L59-550L149-550L149-480L155-480Q160-512 179-533L179-533Q204-560 246-560L246-560Q291-560 316-525L316-525Q329-506 335-480L335-480L339-480Q344-512 364-533L364-533Q389-560 432-560L432-560Q483-560 512-522Q541-483 541-419L541-419L541 0L445 0L445-416Q445-447 432-464Q418-481 393-481Q368-481 355-465Q341-448 341-417L341-417L341 0L260 0L260-416Q260-448 246-465Q232-481 206-481L206-481Q181-481 169-465Q156-448 156-417L156-417L156 0Z"/><path id="gy" d="M535 180L415 180L312 10Q307 10 300 10L300 10Q232 10 181-17Q130-44 102-93Q74-141 74-206L74-206L74-524Q74-590 102-638Q130-686 181-713Q232-740 300-740L300-740Q369-740 420-713Q470-686 498-638Q526-590 526-524L526-524L526-206Q526-140 498-90Q469-40 416-15L416-15L535 180ZM300-85L300-85Q355-85 387-118Q418-151 418-206L418-206L418-524Q418-580 387-613Q355-645 300-645L300-645Q246-645 214-613Q182-580 182-524L182-524L182-206Q182-151 214-118Q245-85 300-85Z"/><path id="gz" d="M226 0L100 0L21-730L118-730L167-206Q169-186 171-162Q172-138 174-115Q175-92 175-75L175-75Q177-92 179-115Q181-138 184-162Q186-186 189-206L189-206L252-730L352-730L411-206Q413-186 416-162Q418-138 421-115Q424-92 425-75L425-75Q426-92 428-115Q429-138 431-162Q433-186 435-206L435-206L485-730L579-730L497 0L372 0L313-531Q311-552 309-576Q307-599 305-622Q303-644 301-659L301-659Q300-644 298-622Q296-599 294-576Q292-552 289-531L289-531L226 0Z"/><path id="g10" d="M195 0L87 0L87-730L195-730L195-329L292-329L438-550L560-550L385-286L563 0L439 0L292-236L195-236L195 0Z"/><path id="g11" d="M354 0L246 0L246-631L51-631L51-731L549-731L549-631L354-631L354 0Z"/><path id="g13" d="M168 0L66 0L66-730L199-730L272-496Q283-463 291-433Q299-402 302-387L302-387Q306-402 314-433Q321-463 331-496L331-496L401-730L534-730L534 0L432 0L432-246Q432-293 435-351Q437-408 442-467Q447-525 452-579Q457-632 461-672L461-672L353-317L249-317L139-672Q144-633 149-582Q154-530 158-472Q162-414 165-356Q168-297 168-246L168-246L168 0Z"/><clipPath id="c"><rect width="400" height="206" rx="16"/></clipPath></defs><rect width="400" height="206" rx="16" fill="#0D1B2A"/><g clip-path="url(#c)"><rect width="400" height="3" fill="#38BDF8"/></g><rect x=".5" y=".5" width="399" height="205" rx="15.5" fill="none" stroke="#263B52"/><g fill="#38BDF8"><use href="#g0" transform="matrix(0.012 0 0 0.012 20 34)"/><use href="#g1" transform="matrix(0.012 0 0 0.012 29.7 34)"/><use href="#g2" transform="matrix(0.012 0 0 0.012 39.4 34)"/><use href="#g3" transform="matrix(0.012 0 0 0.012 49.1 34)"/><use href="#g4" transform="matrix(0.012 0 0 0.012 58.8 34)"/><use href="#g5" transform="matrix(0.012 0 0 0.012 68.5 34)"/><use href="#g6" transform="matrix(0.012 0 0 0.012 78.2 34)"/></g><rect x="28.5" y="50.5" width="43" height="43" rx="10" fill="#11243A" stroke="#263B52"/><path transform="translate(37 59) scale(1.08)" fill="#38BDF8" d="M23.642 5.43a.364.364 0 01.014.1v5.149c0 .135-.073.26-.189.326l-4.323 2.49v4.934a.378.378 0 01-.188.326L9.93 23.949a.316.316 0 01-.066.027c-.008.002-.016.008-.024.01a.348.348 0 01-.192 0c-.011-.002-.02-.008-.03-.012-.02-.008-.042-.014-.062-.025L.533 18.755a.376.376 0 01-.189-.326V2.974c0-.033.005-.066.014-.098.003-.012.01-.02.014-.032a.369.369 0 01.023-.058c.004-.013.015-.022.023-.033l.033-.045c.012-.01.025-.018.037-.027.014-.012.027-.024.041-.034H.53L5.043.05a.375.375 0 01.375 0L9.93 2.647h.002c.015.01.027.021.04.033l.038.027c.013.014.02.03.033.045.008.011.02.021.025.033.01.02.017.038.024.058.003.011.01.021.013.032.01.031.014.064.014.098v9.652l3.76-2.164V5.527c0-.033.004-.066.013-.098.003-.01.01-.02.013-.032a.487.487 0 01.024-.059c.007-.012.018-.02.025-.033.012-.015.021-.03.033-.043.012-.012.025-.02.037-.028.014-.01.026-.023.041-.032h.001l4.513-2.598a.375.375 0 01.375 0l4.513 2.598c.016.01.027.021.042.031.012.01.025.018.036.028.013.014.022.03.034.044.008.012.019.021.024.033.011.02.018.04.024.06.006.01.012.021.015.032zm-.74 5.032V6.179l-1.578.908-2.182 1.256v4.283zm-4.51 7.75v-4.287l-2.147 1.225-6.126 3.498v4.325zM1.093 3.624v14.588l8.273 4.761v-4.325l-4.322-2.445-.002-.003H5.04c-.014-.01-.025-.021-.04-.031-.011-.01-.024-.018-.035-.027l-.001-.002c-.013-.012-.021-.025-.031-.04-.01-.011-.021-.022-.028-.036h-.002c-.008-.014-.013-.031-.02-.047-.006-.016-.014-.027-.018-.043a.49.49 0 01-.008-.057c-.002-.014-.006-.027-.006-.041V5.789l-2.18-1.257zM5.23.81L1.47 2.974l3.76 2.164 3.758-2.164zm1.956 13.505l2.182-1.256V3.624l-1.58.91-2.182 1.255v9.435zm11.581-10.95l-3.76 2.163 3.76 2.163 3.759-2.164zm-.376 4.978L16.21 7.087 14.63 6.18v4.283l2.182 1.256 1.58.908zm-8.65 9.654l5.514-3.148 2.756-1.572-3.757-2.163-4.323 2.489-3.941 2.27z"/><g fill="#9BAEC0"><use href="#g7" transform="matrix(0.0105 0 0 0.0105 27.95 114)"/><use href="#g8" transform="matrix(0.0105 0 0 0.0105 34.25 114)"/><use href="#g9" transform="matrix(0.0105 0 0 0.0105 40.55 114)"/><use href="#g8" transform="matrix(0.0105 0 0 0.0105 46.85 114)"/><use href="#ga" transform="matrix(0.0105 0 0 0.0105 53.15 114)"/><use href="#gb" transform="matrix(0.0105 0 0 0.0105 59.45 114)"/><use href="#gc" transform="matrix(0.0105 0 0 0.0105 65.75 114)"/></g><rect x="88.5" y="50.5" width="43" height="43" rx="10" fill="#11243A" stroke="#263B52"/><path transform="translate(97 59) scale(1.08)" fill="#38BDF8" d="M7.01 10.207h-.944l-.515 2.648h.838c.556 0 .97-.105 1.242-.314.272-.21.455-.559.55-1.049.092-.47.05-.802-.124-.995-.175-.193-.523-.29-1.047-.29zM12 5.688C5.373 5.688 0 8.514 0 12s5.373 6.313 12 6.313S24 15.486 24 12c0-3.486-5.373-6.312-12-6.312zm-3.26 7.451c-.261.25-.575.438-.917.551-.336.108-.765.164-1.285.164H5.357l-.327 1.681H3.652l1.23-6.326h2.65c.797 0 1.378.209 1.744.628.366.418.476 1.002.33 1.752a2.836 2.836 0 0 1-.305.847c-.143.255-.33.49-.561.703zm4.024.715l.543-2.799c.063-.318.039-.536-.068-.651-.107-.116-.336-.174-.687-.174H11.46l-.704 3.625H9.388l1.23-6.327h1.367l-.327 1.682h1.218c.767 0 1.295.134 1.586.401s.378.7.263 1.299l-.572 2.944h-1.389zm7.597-2.265a2.782 2.782 0 0 1-.305.847c-.143.255-.33.49-.561.703a2.44 2.44 0 0 1-.917.551c-.336.108-.765.164-1.286.164h-1.18l-.327 1.682h-1.378l1.23-6.326h2.649c.797 0 1.378.209 1.744.628.366.417.477 1.001.331 1.751zM17.766 10.207h-.943l-.516 2.648h.838c.557 0 .971-.105 1.242-.314.272-.21.455-.559.551-1.049.092-.47.049-.802-.125-.995s-.524-.29-1.047-.29z"/><g fill="#9BAEC0"><use href="#gd" transform="matrix(0.0105 0 0 0.0105 100.55 114)"/><use href="#ge" transform="matrix(0.0105 0 0 0.0105 106.85 114)"/><use href="#gd" transform="matrix(0.0105 0 0 0.0105 113.15 114)"/></g><rect x="148.5" y="50.5" width="43" height="43" rx="10" fill="#11243A" stroke="#263B52"/><path transform="translate(157 59) scale(1.08)" fill="#38BDF8" d="M14.25.18l.9.2.73.26.59.3.45.32.34.34.25.34.16.33.1.3.04.26.02.2-.01.13V8.5l-.05.63-.13.55-.21.46-.26.38-.3.31-.33.25-.35.19-.35.14-.33.1-.3.07-.26.04-.21.02H8.77l-.69.05-.59.14-.5.22-.41.27-.33.32-.27.35-.2.36-.15.37-.1.35-.07.32-.04.27-.02.21v3.06H3.17l-.21-.03-.28-.07-.32-.12-.35-.18-.36-.26-.36-.36-.35-.46-.32-.59-.28-.73-.21-.88-.14-1.05-.05-1.23.06-1.22.16-1.04.24-.87.32-.71.36-.57.4-.44.42-.33.42-.24.4-.16.36-.1.32-.05.24-.01h.16l.06.01h8.16v-.83H6.18l-.01-2.75-.02-.37.05-.34.11-.31.17-.28.25-.26.31-.23.38-.2.44-.18.51-.15.58-.12.64-.1.71-.06.77-.04.84-.02 1.27.05zm-6.3 1.98l-.23.33-.08.41.08.41.23.34.33.22.41.09.41-.09.33-.22.23-.34.08-.41-.08-.41-.23-.33-.33-.22-.41-.09-.41.09zm13.09 3.95l.28.06.32.12.35.18.36.27.36.35.35.47.32.59.28.73.21.88.14 1.04.05 1.23-.06 1.23-.16 1.04-.24.86-.32.71-.36.57-.4.45-.42.33-.42.24-.4.16-.36.09-.32.05-.24.02-.16-.01h-8.22v.82h5.84l.01 2.76.02.36-.05.34-.11.31-.17.29-.25.25-.31.24-.38.2-.44.17-.51.15-.58.13-.64.09-.71.07-.77.04-.84.01-1.27-.04-1.07-.14-.9-.2-.73-.25-.59-.3-.45-.33-.34-.34-.25-.34-.16-.33-.1-.3-.04-.25-.02-.2.01-.13v-5.34l.05-.64.13-.54.21-.46.26-.38.3-.32.33-.24.35-.2.35-.14.33-.1.3-.06.26-.04.21-.02.13-.01h5.84l.69-.05.59-.14.5-.21.41-.28.33-.32.27-.35.2-.36.15-.36.1-.35.07-.32.04-.28.02-.21V6.07h2.09l.14.01zm-6.47 14.25l-.23.33-.08.41.08.41.23.33.33.23.41.08.41-.08.33-.23.23-.33.08-.41-.08-.41-.23-.33-.33-.23-.41-.08-.41.08z"/><g fill="#9BAEC0"><use href="#gd" transform="matrix(0.0105 0 0 0.0105 151.1 114)"/><use href="#gf" transform="matrix(0.0105 0 0 0.0105 157.4 114)"/><use href="#gg" transform="matrix(0.0105 0 0 0.0105 163.7 114)"/><use href="#gh" transform="matrix(0.0105 0 0 0.0105 170 114)"/><use href="#gi" transform="matrix(0.0105 0 0 0.0105 176.3 114)"/><use href="#gj" transform="matrix(0.0105 0 0 0.0105 182.6 114)"/></g><rect x="208.5" y="50.5" width="43" height="43" rx="10" fill="#11243A" stroke="#263B52"/><path transform="translate(217 59) scale(1.08)" fill="#38BDF8" d="M1.811 10.231c-.047 0-.058-.023-.035-.059l.246-.315c.023-.035.081-.058.128-.058h4.172c.046 0 .058.035.035.07l-.199.303c-.023.036-.082.07-.117.07zM.047 11.306c-.047 0-.059-.023-.035-.058l.245-.316c.023-.035.082-.058.129-.058h5.328c.047 0 .07.035.058.07l-.093.28c-.012.047-.058.07-.105.07zm2.828 1.075c-.047 0-.059-.035-.035-.07l.163-.292c.023-.035.07-.07.117-.07h2.337c.047 0 .07.035.07.082l-.023.28c0 .047-.047.082-.082.082zm12.129-2.36c-.736.187-1.239.327-1.963.514-.176.046-.187.058-.34-.117-.174-.199-.303-.327-.548-.444-.737-.362-1.45-.257-2.115.175-.795.514-1.204 1.274-1.192 2.22.011.935.654 1.706 1.577 1.835.795.105 1.46-.175 1.987-.77.105-.13.198-.27.315-.434H10.47c-.245 0-.304-.152-.222-.35.152-.362.432-.97.596-1.274a.315.315 0 01.292-.187h4.253c-.023.316-.023.631-.07.947a4.983 4.983 0 01-.958 2.29c-.841 1.11-1.94 1.8-3.33 1.986-1.145.152-2.209-.07-3.143-.77-.865-.655-1.356-1.52-1.484-2.595-.152-1.274.222-2.419.993-3.424.83-1.086 1.928-1.776 3.272-2.02 1.098-.2 2.15-.07 3.096.571.62.41 1.063.97 1.356 1.648.07.105.023.164-.117.2m3.868 6.461c-1.064-.024-2.034-.328-2.852-1.029a3.665 3.665 0 01-1.262-2.255c-.21-1.32.152-2.489.947-3.529.853-1.122 1.881-1.706 3.272-1.95 1.192-.21 2.314-.095 3.33.595.923.63 1.496 1.484 1.648 2.605.198 1.578-.257 2.863-1.344 3.962-.771.783-1.718 1.273-2.805 1.495-.315.06-.63.07-.934.106zm2.78-4.72c-.011-.153-.011-.27-.034-.387-.21-1.157-1.274-1.81-2.384-1.554-1.087.245-1.788.935-2.045 2.033-.21.912.234 1.835 1.075 2.21.643.28 1.285.244 1.905-.07.923-.48 1.425-1.228 1.484-2.233z"/><g fill="#9BAEC0"><use href="#gk" transform="matrix(0.0105 0 0 0.0105 223.7 114)"/><use href="#gi" transform="matrix(0.0105 0 0 0.0105 230 114)"/></g><rect x="268.5" y="50.5" width="43" height="43" rx="10" fill="#11243A" stroke="#263B52"/><path transform="translate(277 59) scale(1.08)" fill="#38BDF8" d="M23.5594 14.7228a.5269.5269 0 0 0-.0563-.1191c-.139-.2632-.4768-.3418-1.0074-.2321-1.6533.3411-2.2935.1312-2.5256-.0191 1.342-2.0482 2.445-4.522 3.0411-6.8297.2714-1.0507.7982-3.5237.1222-4.7316a1.5641 1.5641 0 0 0-.1509-.235C21.6931.9086 19.8007.0248 17.5099.0005c-1.4947-.0158-2.7705.3461-3.1161.4794a9.449 9.449 0 0 0-.5159-.0816 8.044 8.044 0 0 0-1.3114-.1278c-1.1822-.0184-2.2038.2642-3.0498.8406-.8573-.3211-4.7888-1.645-7.2219.0788C.9359 2.1526.3086 3.8733.4302 6.3043c.0409.818.5069 3.334 1.2423 5.7436.4598 1.5065.9387 2.7019 1.4334 3.582.553.9942 1.1259 1.5933 1.7143 1.7895.4474.1491 1.1327.1441 1.8581-.7279.8012-.9635 1.5903-1.8258 1.9446-2.2069.4351.2355.9064.3625 1.39.3772a.0569.0569 0 0 0 .0004.0041 11.0312 11.0312 0 0 0-.2472.3054c-.3389.4302-.4094.5197-1.5002.7443-.3102.064-1.1344.2339-1.1464.8115-.0025.1224.0329.2309.0919.3268.2269.4231.9216.6097 1.015.6331 1.3345.3335 2.5044.092 3.3714-.6787-.017 2.231.0775 4.4174.3454 5.0874.2212.5529.7618 1.9045 2.4692 1.9043.2505 0 .5263-.0291.8296-.0941 1.7819-.3821 2.5557-1.1696 2.855-2.9059.1503-.8707.4016-2.8753.5388-4.1012.0169-.0703.0357-.1207.057-.1362.0007-.0005.0697-.0471.4272.0307a.3673.3673 0 0 0 .0443.0068l.2539.0223.0149.001c.8468.0384 1.9114-.1426 2.5312-.4308.6438-.2988 1.8057-1.0323 1.5951-1.6698zM2.371 11.8765c-.7435-2.4358-1.1779-4.8851-1.2123-5.5719-.1086-2.1714.4171-3.6829 1.5623-4.4927 1.8367-1.2986 4.8398-.5408 6.108-.13-.0032.0032-.0066.0061-.0098.0094-2.0238 2.044-1.9758 5.536-1.9708 5.7495-.0002.0823.0066.1989.0162.3593.0348.5873.0996 1.6804-.0735 2.9184-.1609 1.1504.1937 2.2764.9728 3.0892.0806.0841.1648.1631.2518.2374-.3468.3714-1.1004 1.1926-1.9025 2.1576-.5677.6825-.9597.5517-1.0886.5087-.3919-.1307-.813-.5871-1.2381-1.3223-.4796-.839-.9635-2.0317-1.4155-3.5126zm6.0072 5.0871c-.1711-.0428-.3271-.1132-.4322-.1772.0889-.0394.2374-.0902.4833-.1409 1.2833-.2641 1.4815-.4506 1.9143-1.0002.0992-.126.2116-.2687.3673-.4426a.3549.3549 0 0 0 .0737-.1298c.1708-.1513.2724-.1099.4369-.0417.156.0646.3078.26.3695.4752.0291.1016.0619.2945-.0452.4444-.9043 1.2658-2.2216 1.2494-3.1676 1.0128zm2.094-3.988-.0525.141c-.133.3566-.2567.6881-.3334 1.003-.6674-.0021-1.3168-.2872-1.8105-.8024-.6279-.6551-.9131-1.5664-.7825-2.5004.1828-1.3079.1153-2.4468.079-3.0586-.005-.0857-.0095-.1607-.0122-.2199.2957-.2621 1.6659-.9962 2.6429-.7724.4459.1022.7176.4057.8305.928.5846 2.7038.0774 3.8307-.3302 4.7363-.084.1866-.1633.3629-.2311.5454zm7.3637 4.5725c-.0169.1768-.0358.376-.0618.5959l-.146.4383a.3547.3547 0 0 0-.0182.1077c-.0059.4747-.054.6489-.115.8693-.0634.2292-.1353.4891-.1794 1.0575-.11 1.4143-.8782 2.2267-2.4172 2.5565-1.5155.3251-1.7843-.4968-2.0212-1.2217a6.5824 6.5824 0 0 0-.0769-.2266c-.2154-.5858-.1911-1.4119-.1574-2.5551.0165-.5612-.0249-1.9013-.3302-2.6462.0044-.2932.0106-.5909.019-.8918a.3529.3529 0 0 0-.0153-.1126 1.4927 1.4927 0 0 0-.0439-.208c-.1226-.4283-.4213-.7866-.7797-.9351-.1424-.059-.4038-.1672-.7178-.0869.067-.276.1831-.5875.309-.9249l.0529-.142c.0595-.16.134-.3257.213-.5012.4265-.9476 1.0106-2.2453.3766-5.1772-.2374-1.0981-1.0304-1.6343-2.2324-1.5098-.7207.0746-1.3799.3654-1.7088.5321a5.6716 5.6716 0 0 0-.1958.1041c.0918-1.1064.4386-3.1741 1.7357-4.4823a4.0306 4.0306 0 0 1 .3033-.276.3532.3532 0 0 0 .1447-.0644c.7524-.5706 1.6945-.8506 2.802-.8325.4091.0067.8017.0339 1.1742.081 1.939.3544 3.2439 1.4468 4.0359 2.3827.8143.9623 1.2552 1.9315 1.4312 2.4543-1.3232-.1346-2.2234.1268-2.6797.779-.9926 1.4189.543 4.1729 1.2811 5.4964.1353.2426.2522.4522.2889.5413.2403.5825.5515.9713.7787 1.2552.0696.087.1372.1714.1885.245-.4008.1155-1.1208.3825-1.0552 1.717-.0123.1563-.0423.4469-.0834.8148-.0461.2077-.0702.4603-.0994.7662zm.8905-1.6211c-.0405-.8316.2691-.9185.5967-1.0105a2.8566 2.8566 0 0 0 .135-.0406 1.202 1.202 0 0 0 .1342.103c.5703.3765 1.5823.4213 3.0068.1344-.2016.1769-.5189.3994-.9533.6011-.4098.1903-1.0957.333-1.7473.3636-.7197.0336-1.0859-.0807-1.1721-.151zm.5695-9.2712c-.0059.3508-.0542.6692-.1054 1.0017-.055.3576-.112.7274-.1264 1.1762-.0142.4368.0404.8909.0932 1.3301.1066.887.216 1.8003-.2075 2.7014a3.5272 3.5272 0 0 1-.1876-.3856c-.0527-.1276-.1669-.3326-.3251-.6162-.6156-1.1041-2.0574-3.6896-1.3193-4.7446.3795-.5427 1.3408-.5661 2.1781-.463zm.2284 7.0137a12.3762 12.3762 0 0 0-.0853-.1074l-.0355-.0444c.7262-1.1995.5842-2.3862.4578-3.4385-.0519-.4318-.1009-.8396-.0885-1.2226.0129-.4061.0666-.7543.1185-1.0911.0639-.415.1288-.8443.1109-1.3505.0134-.0531.0188-.1158.0118-.1902-.0457-.4855-.5999-1.938-1.7294-3.253-.6076-.7073-1.4896-1.4972-2.6889-2.0395.5251-.1066 1.2328-.2035 2.0244-.1859 2.0515.0456 3.6746.8135 4.8242 2.2824a.908.908 0 0 1 .0667.1002c.7231 1.3556-.2762 6.2751-2.9867 10.5405zm-8.8166-6.1162c-.025.1794-.3089.4225-.6211.4225a.5821.5821 0 0 1-.0809-.0056c-.1873-.026-.3765-.144-.5059-.3156-.0458-.0605-.1203-.178-.1055-.2844.0055-.0401.0261-.0985.0925-.1488.1182-.0894.3518-.1226.6096-.0867.3163.0441.6426.1938.6113.4186zm7.9305-.4114c.0111.0792-.049.201-.1531.3102-.0683.0717-.212.1961-.4079.2232a.5456.5456 0 0 1-.075.0052c-.2935 0-.5414-.2344-.5607-.3717-.024-.1765.2641-.3106.5611-.352.297-.0414.6111.0088.6356.1851z"/><g fill="#9BAEC0"><use href="#gd" transform="matrix(0.0105 0 0 0.0105 264.8 114)"/><use href="#gi" transform="matrix(0.0105 0 0 0.0105 271.1 114)"/><use href="#gl" transform="matrix(0.0105 0 0 0.0105 277.4 114)"/><use href="#gg" transform="matrix(0.0105 0 0 0.0105 283.7 114)"/><use href="#gm" transform="matrix(0.0105 0 0 0.0105 290 114)"/><use href="#g9" transform="matrix(0.0105 0 0 0.0105 296.3 114)"/><use href="#gb" transform="matrix(0.0105 0 0 0.0105 302.6 114)"/><use href="#gl" transform="matrix(0.0105 0 0 0.0105 308.9 114)"/></g><rect x="328.5" y="50.5" width="43" height="43" rx="10" fill="#11243A" stroke="#263B52"/><path transform="translate(337 59) scale(1.08)" fill="#38BDF8" d="M22.71 13.145c-1.66 2.092-3.452 4.483-7.038 4.483-3.203 0-4.397-2.825-4.48-5.12.701 1.484 2.073 2.685 4.214 2.63 4.117-.133 6.94-3.852 6.94-7.239 0-4.05-3.022-6.972-8.268-6.972-3.752 0-8.4 1.428-11.455 3.685C2.59 6.937 3.885 9.958 4.35 9.626c2.648-1.904 4.748-3.13 6.784-3.744C8.12 9.244.886 17.05 0 18.425c.1 1.261 1.66 4.648 2.424 4.648.232 0 .431-.133.664-.365a100.49 100.49 0 0 0 5.54-6.765c.222 3.104 1.748 6.898 6.014 6.898 3.819 0 7.604-2.756 9.33-8.965.2-.764-.73-1.361-1.261-.73zm-4.349-5.013c0 1.959-1.926 2.922-3.685 2.922-.941 0-1.664-.247-2.235-.568 1.051-1.592 2.092-3.225 3.21-4.973 1.972.334 2.71 1.43 2.71 2.619z"/><g fill="#9BAEC0"><use href="#gn" transform="matrix(0.0105 0 0 0.0105 334.25 114)"/><use href="#gb" transform="matrix(0.0105 0 0 0.0105 340.55 114)"/><use href="#go" transform="matrix(0.0105 0 0 0.0105 346.85 114)"/><use href="#gp" transform="matrix(0.0105 0 0 0.0105 353.15 114)"/><use href="#gl" transform="matrix(0.0105 0 0 0.0105 359.45 114)"/></g><rect x="20.5" y="132.5" width="59" height="23" rx="6" fill="#11243A" stroke="#38BDF8" stroke-opacity="0.45"/><g fill="#9BAEC0"><use href="#gq" transform="matrix(0.01 0 0 0.01 29 147.65)"/><use href="#g8" transform="matrix(0.01 0 0 0.01 35 147.65)"/><use href="#gl" transform="matrix(0.01 0 0 0.01 41 147.65)"/><use href="#gg" transform="matrix(0.01 0 0 0.01 47 147.65)"/><use href="#g1" transform="matrix(0.01 0 0 0.01 53 147.65)"/><use href="#gd" transform="matrix(0.01 0 0 0.01 59 147.65)"/><use href="#gr" transform="matrix(0.01 0 0 0.01 65 147.65)"/></g><rect x="86.5" y="132.5" width="53" height="23" rx="6" fill="#11243A" stroke="#38BDF8" stroke-opacity="0.45"/><g fill="#9BAEC0"><use href="#gs" transform="matrix(0.01 0 0 0.01 95 147.65)"/><use href="#gt" transform="matrix(0.01 0 0 0.01 101 147.65)"/><use href="#gg" transform="matrix(0.01 0 0 0.01 107 147.65)"/><use href="#g8" transform="matrix(0.01 0 0 0.01 113 147.65)"/><use href="#gj" transform="matrix(0.01 0 0 0.01 119 147.65)"/><use href="#gb" transform="matrix(0.01 0 0 0.01 125 147.65)"/></g><rect x="146.5" y="132.5" width="53" height="23" rx="6" fill="#11243A" stroke="#38BDF8" stroke-opacity="0.45"/><g fill="#9BAEC0"><use href="#gn" transform="matrix(0.01 0 0 0.01 155 147.65)"/><use href="#gb" transform="matrix(0.01 0 0 0.01 161 147.65)"/><use href="#ga" transform="matrix(0.01 0 0 0.01 167 147.65)"/><use href="#gb" transform="matrix(0.01 0 0 0.01 173 147.65)"/><use href="#g9" transform="matrix(0.01 0 0 0.01 179 147.65)"/><use href="#gu" transform="matrix(0.01 0 0 0.01 185 147.65)"/></g><rect x="206.5" y="132.5" width="59" height="23" rx="6" fill="#11243A" stroke="#38BDF8" stroke-opacity="0.45"/><g fill="#9BAEC0"><use href="#gv" transform="matrix(0.01 0 0 0.01 215 147.65)"/><use href="#g8" transform="matrix(0.01 0 0 0.01 221 147.65)"/><use href="#gj" transform="matrix(0.01 0 0 0.01 227 147.65)"/><use href="#gt" transform="matrix(0.01 0 0 0.01 233 147.65)"/><use href="#gg" transform="matrix(0.01 0 0 0.01 239 147.65)"/><use href="#gw" transform="matrix(0.01 0 0 0.01 245 147.65)"/><use href="#gx" transform="matrix(0.01 0 0 0.01 251 147.65)"/></g><rect x="272.5" y="132.5" width="53" height="23" rx="6" fill="#11243A" stroke="#38BDF8" stroke-opacity="0.45"/><g fill="#9BAEC0"><use href="#gy" transform="matrix(0.01 0 0 0.01 281 147.65)"/><use href="#gw" transform="matrix(0.01 0 0 0.01 287 147.65)"/><use href="#gb" transform="matrix(0.01 0 0 0.01 293 147.65)"/><use href="#gw" transform="matrix(0.01 0 0 0.01 299 147.65)"/><use href="#gb" transform="matrix(0.01 0 0 0.01 305 147.65)"/><use href="#gl" transform="matrix(0.01 0 0 0.01 311 147.65)"/></g><rect x="20.5" y="162.5" width="77" height="23" rx="6" fill="#11243A" stroke="#38BDF8" stroke-opacity="0.45"/><g fill="#9BAEC0"><use href="#gz" transform="matrix(0.01 0 0 0.01 29 177.65)"/><use href="#gb" transform="matrix(0.01 0 0 0.01 35 177.65)"/><use href="#gu" transform="matrix(0.01 0 0 0.01 41 177.65)"/><use href="#gv" transform="matrix(0.01 0 0 0.01 47 177.65)"/><use href="#gi" transform="matrix(0.01 0 0 0.01 53 177.65)"/><use href="#gt" transform="matrix(0.01 0 0 0.01 59 177.65)"/><use href="#g10" transform="matrix(0.01 0 0 0.01 65 177.65)"/><use href="#gb" transform="matrix(0.01 0 0 0.01 71 177.65)"/><use href="#gg" transform="matrix(0.01 0 0 0.01 77 177.65)"/><use href="#gl" transform="matrix(0.01 0 0 0.01 83 177.65)"/></g><rect x="104.5" y="162.5" width="71" height="23" rx="6" fill="#11243A" stroke="#38BDF8" stroke-opacity="0.45"/><g fill="#9BAEC0"><use href="#gn" transform="matrix(0.01 0 0 0.01 113 177.65)"/><use href="#g4" transform="matrix(0.01 0 0 0.01 119 177.65)"/><use href="#gv" transform="matrix(0.01 0 0 0.01 125 177.65)"/><use href="#g11" transform="matrix(0.01 0 0 0.01 131 177.65)"/><use href="#g1" transform="matrix(0.01 0 0 0.01 143 177.65)"/><use href="#gd" transform="matrix(0.01 0 0 0.01 149 177.65)"/><use href="#gr" transform="matrix(0.01 0 0 0.01 155 177.65)"/><use href="#gl" transform="matrix(0.01 0 0 0.01 161 177.65)"/></g><rect x="182.5" y="162.5" width="47" height="23" rx="6" fill="#11243A" stroke="#38BDF8" stroke-opacity="0.45"/><g fill="#9BAEC0"><use href="#g13" transform="matrix(0.01 0 0 0.01 191 177.65)"/><use href="#gf" transform="matrix(0.01 0 0 0.01 197 177.65)"/><use href="#gv" transform="matrix(0.01 0 0 0.01 203 177.65)"/><use href="#gy" transform="matrix(0.01 0 0 0.01 209 177.65)"/><use href="#g7" transform="matrix(0.01 0 0 0.01 215 177.65)"/></g></svg>